<mxfile host="app.diagrams.net" modified="2023-10-07T16:07:53.960Z" agent="Mozilla/5.0 (Windows NT 10.0; Win64; x64) AppleWebKit/537.36 (KHTML, like Gecko) Chrome/119.0.0.0 Safari/537.36 Edg/119.0.0.0" version="22.0.4" etag="aOtPoG1gNdDTGiZSTXtI" type="github">
  <diagram name="Page-1" id="tlSQMDeSSLmR6KK8Iz4z">
    <mxGraphModel>
      <root>
        <mxCell id="0" />
        <mxCell id="1" parent="0" />
      </root>
    </mxGraphModel>
  </diagram>
</mxfile>
